<?xml version="1.0" encoding="UTF-8" standalone="no"?>
<svg width="50px" height="47px" viewBox="0 0 50 47" version="1.1" xmlns="http://www.w3.org/2000/svg" xmlns:xlink="http://www.w3.org/1999/xlink" xmlns:sketch="http://www.bohemiancoding.com/sketch/ns">
    <!-- Generator: Sketch 3.4.2 (15855) - http://www.bohemiancoding.com/sketch -->
    <title>Fill 253</title>
    <desc>Created with Sketch.</desc>
    <defs></defs>
    <g id="Page-1" stroke="none" stroke-width="1" fill="none" fill-rule="evenodd" sketch:type="MSPage">
        <g id="fa-download" sketch:type="MSLayerGroup" fill="#FFFFFF">
            <path d="M1.01428571,45.35 C1.54761905,45.9380952 2.24285714,46.2047619 3.0452381,46.2047619 L46.8666667,46.2047619 C47.6690476,46.2047619 48.3642857,45.9380952 48.897619,45.35 C49.4857143,44.8142857 49.752381,44.1214286 49.752381,43.3190476 L49.752381,33.8071429 C49.752381,33.0047619 49.4857143,32.3095238 48.897619,31.7761905 C48.3642857,31.1880952 47.6690476,30.9214286 46.8666667,30.9214286 L33.0785714,30.9214286 L29.0190476,34.9809524 C27.8428571,36.1047619 26.5071429,36.6380952 24.9571429,36.6380952 C23.4071429,36.6380952 22.0714286,36.1047619 20.8952381,34.9809524 L16.8857143,30.9214286 L3.0452381,30.9214286 C2.24285714,30.9214286 1.54761905,31.1880952 1.01428571,31.7761905 C0.426190476,32.3095238 0.15952381,33.0047619 0.15952381,33.8071429 L0.15952381,43.3190476 C0.15952381,44.1214286 0.426190476,44.8142857 1.01428571,45.35 L1.01428571,45.35 Z M10.2595238,18.8952381 L23.6190476,32.2571429 C23.9952381,32.6309524 24.4214286,32.8452381 24.9571429,32.8452381 C25.4904762,32.8452381 25.9190476,32.6309524 26.2928571,32.2571429 L39.652381,18.8952381 C40.2404762,18.3071429 40.4,17.6142857 40.0809524,16.8119048 C39.7071429,16.0095238 39.1190476,15.6357143 38.3166667,15.6357143 L30.6738095,15.6357143 L30.6738095,2.27619048 C30.6738095,1.7952381 30.4619048,1.31428571 30.0857143,0.938095238 C29.7119048,0.564285714 29.2857143,0.404761905 28.75,0.404761905 L21.1619048,0.404761905 C20.6285714,0.404761905 20.2,0.564285714 19.8261905,0.938095238 C19.452381,1.31428571 19.2380952,1.7952381 19.2380952,2.27619048 L19.2380952,15.6357143 L11.5952381,15.6357143 C10.7952381,15.6357143 10.2071429,16.0095238 9.83333333,16.8119048 C9.51190476,17.6142857 9.67142857,18.3071429 10.2595238,18.8952381 L10.2595238,18.8952381 Z M36.3928571,38.5619048 C36.9261905,38.5619048 37.3547619,38.7761905 37.7285714,39.15 C38.102381,39.5238095 38.3166667,39.952381 38.3166667,40.4857143 C38.3166667,41.0214286 38.102381,41.447619 37.7285714,41.8214286 C37.3547619,42.197619 36.9261905,42.4095238 36.3928571,42.4095238 C35.9119048,42.4095238 35.4309524,42.197619 35.0571429,41.8214286 C34.6833333,41.447619 34.5214286,41.0214286 34.5214286,40.4857143 C34.5214286,39.952381 34.6833333,39.5238095 35.0571429,39.15 C35.4309524,38.7761905 35.9119048,38.5619048 36.3928571,38.5619048 L36.3928571,38.5619048 Z M44.0357143,38.5619048 C44.5690476,38.5619048 44.997619,38.7761905 45.3714286,39.15 C45.7452381,39.5238095 45.9595238,39.952381 45.9595238,40.4857143 C45.9595238,41.0214286 45.7452381,41.447619 45.3714286,41.8214286 C44.997619,42.197619 44.5690476,42.4095238 44.0357143,42.4095238 C43.5,42.4095238 43.0738095,42.197619 42.7,41.8214286 C42.3238095,41.447619 42.1119048,41.0214286 42.1119048,40.4857143 C42.1119048,39.952381 42.3238095,39.5238095 42.7,39.15 C43.0738095,38.7761905 43.5,38.5619048 44.0357143,38.5619048 L44.0357143,38.5619048 Z" id="Fill-253" sketch:type="MSShapeGroup"></path>
        </g>
    </g>
</svg>