<?xml version="1.0" encoding="UTF-8" standalone="no"?>
<svg width="50px" height="50px" viewBox="0 0 50 50" version="1.1" xmlns="http://www.w3.org/2000/svg" xmlns:xlink="http://www.w3.org/1999/xlink" xmlns:sketch="http://www.bohemiancoding.com/sketch/ns">
    <!-- Generator: Sketch 3.4.2 (15855) - http://www.bohemiancoding.com/sketch -->
    <title>Rectangle 20 + svg3119</title>
    <desc>Created with Sketch.</desc>
    <defs></defs>
    <g id="Page-1" stroke="none" stroke-width="1" fill="none" fill-rule="evenodd" sketch:type="MSPage">
        <g id="Rectangle-20-+-svg3119" sketch:type="MSLayerGroup">
            <rect id="Rectangle-20" stroke="#FFFFFF" stroke-width="2" stroke-dasharray="5" sketch:type="MSShapeGroup" x="0" y="0" width="50" height="50"></rect>
            <g id="svg3119" transform="translate(5.000000, 12.000000)" fill="#FFFFFF" sketch:type="MSShapeGroup">
                <g id="layer1" transform="translate(0.045748, 0.001310)">
                    <g id="g3160" transform="translate(0.094109, 0.069415)">
                        <path d="M5.34789997,0.0901091438 C3.19776054,0.0716420082 0.990240502,1.01791899 0.344022307,2.78434635 C-0.61641687,4.91566335 0.92488672,7.40558331 3.55681422,8.17295173 C3.56517951,8.17517827 3.57733531,8.1707252 3.58517776,8.17295173 C6.45525444,9.2124812 10.0274922,9.72 13.1380708,12.9450691 L14.3037208,14.1552559 L13.2517863,15.2284453 C10.1320582,18.4480136 6.5719763,18.943221 3.69889334,19.9776425 C3.69261938,19.9806549 3.67784942,19.9746301 3.6705298,19.9776425 C1.04579122,20.7375455 -0.476429069,23.215416 0.457737888,25.3434586 C0.461005577,25.3496144 0.454470199,25.3595683 0.457737888,25.3662479 C1.25623039,27.5195683 4.39229697,28.4730488 6.91155455,27.9008295 C6.91991983,27.8989959 6.9314221,27.9024012 6.93991809,27.9008295 C9.5202161,27.4501528 11.6328425,25.34634 11.0340711,23.22 C10.738672,22.1709095 10.3606657,21.6838225 10.0105002,21.3934562 C9.83548275,21.2483386 9.6826856,21.1575746 9.58400139,21.0737521 C9.48531718,20.9900606 9.07005925,20.7567984 9.07005925,20.7567984 C9.32703032,20.5693767 9.47708261,20.4808392 9.69771697,20.343187 C10.0272307,20.127999 10.6029976,19.8635654 11.3467236,19.5439922 C12.8211049,18.9104778 14.9925497,18.016066 17.4878878,16.5757604 C22.0012199,19.1464904 27.8652841,22.4756828 31.1063088,24.3161096 C34.3474643,26.1565365 37.6649529,25.2283337 39.0386894,24.3844773 L21.6558906,14.1620665 L39.1380272,3.83880669 C36.4284594,2.1643221 33.3363106,2.87340771 31.2766208,3.88163473 C26.6975427,6.48406015 22.1038254,9.0739122 17.5157285,11.6675625 C15.4236232,10.5216832 13.1787208,9.47115207 11.2324852,8.63083192 C10.4881056,8.30942518 9.91364587,8.04787291 9.58347856,7.83163716 C9.41839491,7.72358477 9.00065354,7.48914383 9.00065354,7.48914383 C9.38245033,7.2660975 9.78712095,6.85510551 10.0810823,6.54155712 C10.3750436,6.22800873 10.7210265,5.76357992 10.9198327,4.95469318 C11.4455385,2.81577977 9.40506274,0.706466165 6.82567968,0.25107446 C6.32506971,0.140533592 5.78655455,0.124292991 5.34541652,0.0914188698 L5.34789997,0.0901091438 Z M5.06361101,1.89399466 C6.02339665,1.84880912 7.01389857,2.11180209 7.65083653,2.62469076 C8.60513245,3.39297599 8.78694667,4.45110357 8.41848205,5.31892797 C8.05001743,6.18662139 7.16669571,6.82812515 5.91647787,6.82589862 L5.88811433,6.82589862 C4.74220112,6.87907349 3.62465145,6.34863449 2.95974207,5.5701334 C2.29483269,4.79163231 2.10530673,3.82322096 2.76080516,2.98997332 L2.76080516,2.96718409 C3.21462182,2.27577977 4.10565528,1.93891826 5.06465667,1.89386369 L5.06361101,1.89399466 Z M5.80341582,21.3250885 C5.88837574,21.3235169 5.97608052,21.3220762 6.03084699,21.3250885 C7.28132625,21.3250885 8.16647787,21.9646277 8.53285117,22.8320592 C8.89922447,23.6996216 8.7217236,24.7598448 7.76520565,25.5264274 C7.12748344,26.0374824 6.10966365,26.3250982 5.14948588,26.2797817 C4.18930812,26.2347271 3.32598466,25.8761242 2.87491286,25.183934 L2.84654932,25.1611448 C2.21405542,24.3530439 2.39769955,23.4391171 3.01712269,22.6722726 C3.63654583,21.9054281 4.69828337,21.3402813 5.80328512,21.3245646 L5.80341582,21.3250885 Z" id="path3186"></path>
                    </g>
                </g>
            </g>
        </g>
    </g>
</svg>